<?xml version="1.0" standalone="no"?>
<!DOCTYPE svg PUBLIC "-//W3C//DTD SVG 20010904//EN"
 "http://www.w3.org/TR/2001/REC-SVG-20010904/DTD/svg10.dtd">
<svg version="1.0" xmlns="http://www.w3.org/2000/svg"
 width="1080.000000pt" height="1080.000000pt" viewBox="0 0 1080.000000 1080.000000"
 preserveAspectRatio="xMidYMid meet">
<metadata>
Created by potrace 1.16, written by Peter Selinger 2001-2019
</metadata>
<g transform="translate(0.000000,1080.000000) scale(0.100000,-0.100000)"
fill="#000000" stroke="none">
<path d="M5420 8004 c-143 -30 -315 -106 -421 -185 -244 -181 -445 -477 -571
-839 -31 -89 -134 -502 -167 -675 -177 -899 -233 -1236 -306 -1810 -66 -528
-82 -845 -65 -1355 10 -295 14 -358 27 -370 14 -13 15 -9 9 45 -3 33 -9 258
-12 500 -8 508 1 672 67 1185 67 530 116 833 225 1400 123 641 206 982 285
1180 144 362 397 673 651 801 146 74 391 132 483 115 53 -10 35 -22 -43 -29
-130 -13 -263 -74 -367 -169 -196 -180 -411 -489 -548 -787 -172 -372 -340
-1122 -402 -1786 -55 -592 -78 -1081 -78 -1660 0 -418 4 -527 19 -512 3 2 5
231 4 508 0 574 10 825 56 1419 43 554 107 966 220 1415 96 379 189 618 336
865 128 216 266 393 401 515 154 139 364 203 580 175 211 -28 321 -84 474
-245 284 -297 483 -655 609 -1093 147 -509 230 -989 278 -1602 72 -914 83
-1670 32 -2240 -14 -150 -14 -171 1 -157 10 11 31 272 44 557 27 595 -22 1672
-107 2345 -64 513 -207 1108 -348 1450 -149 359 -483 813 -674 913 -83 44
-189 80 -263 88 -68 8 -83 19 -38 29 111 25 403 -59 558 -158 277 -180 517
-530 637 -930 41 -136 141 -569 179 -777 20 -107 42 -222 50 -256 8 -34 23
-117 35 -185 11 -68 34 -194 50 -279 94 -497 192 -1310 206 -1710 7 -173 -11
-986 -22 -1057 -4 -24 -1 -33 9 -33 18 0 25 156 33 750 5 370 4 442 -15 660
-47 544 -141 1180 -287 1930 -30 157 -62 321 -71 365 -29 151 -142 600 -173
690 -47 134 -171 378 -245 480 -129 179 -278 321 -420 401 -194 108 -487 167
-573 114 -41 -25 -57 -25 -89 0 -21 16 -40 20 -107 19 -44 0 -110 -7 -146 -15z"/>
<path d="M5070 7777 c-243 -192 -460 -550 -589 -972 -60 -198 -159 -594 -180
-721 -11 -71 -37 -228 -57 -349 -37 -223 -57 -485 -37 -485 6 0 13 54 16 123
3 67 22 219 41 337 20 118 45 274 56 345 31 190 145 630 220 848 128 373 330
691 543 854 52 40 70 63 50 63 -5 0 -33 -20 -63 -43z"/>
<path d="M6300 7814 c0 -3 57 -60 126 -127 91 -87 143 -147 189 -217 145 -221
241 -425 320 -686 56 -184 162 -608 179 -719 9 -55 32 -197 51 -315 46 -291
58 -396 51 -452 -4 -30 -3 -48 3 -48 30 0 25 165 -9 366 -11 66 -34 205 -50
309 -35 229 -53 313 -125 589 -101 382 -185 607 -302 811 -120 208 -226 340
-358 445 -61 48 -75 57 -75 44z"/>
<path d="M5495 7742 c-138 -48 -346 -217 -495 -402 -150 -188 -297 -449 -375
-665 -68 -188 -119 -444 -145 -735 -27 -302 -21 -1503 10 -2030 34 -556 50
-760 63 -760 6 0 8 33 3 93 -62 854 -82 1439 -72 2133 8 557 32 822 101 1094
86 343 290 717 527 965 177 187 428 341 482 296 9 -8 16 -8 20 -2 8 12 -25 31
-51 31 -10 -1 -41 -8 -68 -18z"/>
<path d="M5833 7749 c-21 -21 -15 -29 12 -17 54 25 173 -34 340 -169 284 -229
557 -671 660 -1071 46 -175 79 -403 95 -654 13 -195 13 -1212 0 -1547 -13
-363 -40 -817 -60 -1021 -5 -52 -14 -188 -21 -303 -11 -182 -10 -232 5 -216 2
2 9 90 15 194 6 105 18 269 26 365 20 246 43 631 55 930 15 348 15 1435 0
1630 -27 369 -82 643 -176 875 -180 441 -494 827 -794 976 -70 34 -139 47
-157 28z"/>
<path d="M5330 7512 c-98 -79 -239 -226 -315 -327 -129 -171 -307 -555 -339
-727 -11 -62 9 -43 28 25 47 171 194 498 285 632 80 117 253 303 366 391 69
54 87 74 67 74 -4 0 -45 -31 -92 -68z"/>
<path d="M6045 7538 c111 -93 343 -335 394 -413 86 -131 213 -397 260 -546 57
-177 59 -183 60 -140 3 124 -237 633 -371 791 -114 133 -351 351 -381 349 -7
0 11 -19 38 -41z"/>
<path d="M5345 7362 c-165 -162 -204 -206 -287 -327 -351 -514 -438 -812 -438
-1499 0 -146 4 -320 10 -388 5 -68 14 -202 20 -298 23 -405 45 -686 75 -980
28 -264 45 -483 52 -652 4 -101 10 -168 16 -168 19 0 -7 467 -43 780 -16 143
-49 542 -65 795 -8 132 -22 350 -31 485 -28 417 -11 853 42 1114 52 257 222
594 455 901 37 50 141 160 233 248 151 144 181 178 159 177 -5 0 -94 -85 -198
-188z"/>
<path d="M5890 7542 c0 -10 148 -162 256 -263 186 -173 444 -587 543 -870 60
-173 97 -421 107 -719 7 -201 -2 -398 -56 -1230 -11 -160 -34 -419 -71 -785
-24 -249 -38 -765 -20 -765 8 0 11 57 11 194 0 174 23 532 50 766 17 149 48
536 65 805 8 143 20 319 26 390 37 477 15 957 -56 1231 -82 314 -357 786 -579
994 -44 41 -123 117 -175 168 -52 50 -96 92 -98 92 -2 0 -3 -4 -3 -8z"/>
<path d="M5600 7507 c0 -26 -119 -193 -225 -317 -266 -309 -468 -621 -558
-865 -33 -87 -69 -234 -97 -385 -30 -168 -30 -169 -20 -175 5 -3 12 11 15 32
84 492 145 649 402 1026 95 139 181 249 304 388 91 104 199 266 199 299 0 5
-4 10 -10 10 -5 0 -10 -6 -10 -13z"/>
<path d="M5820 7503 c0 -40 96 -177 260 -368 247 -289 456 -625 534 -858 26
-80 89 -361 101 -454 4 -29 12 -56 17 -60 26 -16 -44 352 -98 515 -82 249
-285 575 -558 896 -126 147 -217 272 -236 321 -11 29 -20 33 -20 8z"/>
<path d="M5647 7341 c-54 -92 -252 -345 -357 -456 -68 -72 -149 -165 -181
-208 -66 -89 -143 -235 -137 -263 2 -12 22 19 55 86 63 126 113 194 274 365
67 72 141 155 164 185 68 89 215 301 215 311 0 18 -16 8 -33 -20z"/>
<path d="M5759 7353 c19 -36 185 -270 236 -333 29 -36 108 -123 175 -195 132
-141 199 -235 252 -351 30 -67 48 -91 48 -63 0 21 -70 162 -114 227 -24 37
-104 130 -176 207 -122 129 -265 309 -369 463 -23 34 -46 62 -52 62 -6 0 -6
-6 0 -17z"/>
<path d="M5650 7196 c0 -26 -70 -152 -127 -227 -32 -42 -99 -121 -150 -176
-189 -203 -342 -414 -413 -568 -57 -123 -124 -328 -164 -500 -44 -192 -54
-262 -66 -470 -11 -189 2 -430 40 -720 29 -224 31 -238 130 -705 52 -249 115
-571 136 -702 16 -100 27 -138 38 -128 10 11 -94 559 -212 1115 -45 212 -76
422 -102 705 -11 109 -11 451 -2 525 l7 49 48 -106 c112 -244 384 -525 626
-648 l60 -30 -31 -53 c-17 -28 -53 -97 -80 -151 -45 -92 -53 -103 -106 -136
-66 -42 -83 -65 -111 -146 -14 -42 -31 -69 -65 -100 l-46 -42 0 -70 c0 -101
28 -230 105 -477 20 -66 43 -139 50 -162 24 -78 88 -233 97 -233 14 0 9 25
-22 101 -41 97 -132 384 -170 534 -17 66 -33 158 -37 205 l-6 86 45 39 c25 22
86 61 136 87 l90 48 36 -64 c20 -35 36 -68 36 -72 0 -5 -23 -30 -51 -57 -35
-34 -48 -52 -41 -59 7 -7 21 1 43 27 34 38 92 80 143 102 38 17 46 16 46 -6 0
-10 11 -39 25 -64 l24 -46 -27 -20 c-29 -20 -112 -151 -112 -176 0 -29 15 -14
45 42 41 78 70 110 126 139 108 54 229 67 349 36 l65 -17 3 -60 c2 -52 -20
-179 -54 -312 -10 -36 13 -27 25 10 18 51 50 204 57 273 4 35 8 64 10 64 2 0
19 -8 39 -17 44 -21 52 -14 66 62 13 73 6 111 -31 166 -22 33 -30 56 -30 90 0
57 -30 156 -80 269 -45 100 -63 181 -58 269 3 64 21 93 34 54 4 -10 35 -90 69
-178 95 -245 154 -508 162 -730 6 -160 -15 -304 -67 -468 -63 -199 -84 -297
-62 -297 4 0 13 26 20 59 7 32 32 123 56 202 61 201 79 309 79 459 -1 217 -65
527 -154 749 -27 68 -48 125 -47 126 2 1 48 36 103 78 182 137 326 310 423
507 l56 115 9 -115 c15 -216 -8 -561 -62 -913 -18 -113 -41 -228 -106 -532
-77 -356 -161 -822 -151 -833 11 -10 15 4 40 153 26 155 133 688 184 925 37
167 65 341 93 575 18 145 22 233 22 450 0 149 -5 308 -11 353 -19 135 -79 392
-128 540 -101 305 -214 480 -556 857 -90 100 -190 244 -208 302 -15 47 -30 65
-30 36 0 -33 72 -166 133 -247 30 -39 98 -118 151 -175 103 -111 235 -275 305
-380 104 -153 201 -409 265 -696 55 -249 55 -233 0 -355 -57 -126 -75 -156
-171 -282 -83 -109 -171 -195 -287 -282 -84 -63 -84 -63 -106 3 -11 34 -10 40
14 76 43 62 32 77 -42 56 -28 -9 -32 -7 -32 10 0 43 48 116 145 219 109 115
136 162 115 200 -13 25 -67 60 -92 60 -12 0 -18 8 -18 23 0 47 -40 77 -135
103 -56 15 -106 36 -134 56 -38 27 -54 32 -100 32 -50 0 -56 -2 -90 -40 l-36
-41 -23 29 c-33 40 -62 44 -145 20 -40 -11 -93 -23 -119 -27 -36 -5 -53 -13
-73 -36 -31 -38 -32 -63 -1 -123 l24 -48 -27 -9 c-103 -36 -123 -62 -94 -121
l21 -44 -29 -32 c-34 -38 -37 -72 -10 -116 23 -37 62 -61 114 -70 30 -6 37
-11 33 -23 -4 -9 1 -26 9 -39 20 -31 82 -32 180 -4 95 28 197 29 256 3 63 -28
66 -38 16 -53 -82 -24 -142 -63 -212 -135 l-71 -73 -72 38 c-192 101 -414 313
-544 520 -19 30 -54 99 -77 152 -41 92 -43 102 -37 160 10 98 74 358 122 502
96 280 218 473 491 773 126 139 236 292 267 371 19 49 20 62 6 62 -5 0 -10 -6
-10 -14z m224 -1641 c32 -23 72 -40 122 -51 89 -19 126 -45 122 -83 -2 -21
-16 -33 -73 -63 l-70 -37 -15 32 c-11 23 -28 37 -65 51 -47 18 -205 87 -214
93 -11 7 25 66 48 78 45 25 91 18 145 -20z m-264 -5 c30 -30 35 -65 12 -90
-19 -20 -42 -82 -42 -114 0 -21 -6 -20 -38 3 -47 33 -107 46 -151 33 -54 -17
-55 -16 -74 23 -37 77 -17 111 69 125 33 5 78 16 100 24 56 21 101 19 124 -4z
m120 -107 c13 -9 63 -31 109 -48 71 -25 87 -35 95 -57 8 -23 5 -32 -22 -62
-38 -44 -62 -120 -62 -199 0 -32 -4 -57 -9 -55 -24 8 -108 98 -147 157 -24 36
-55 80 -69 97 -24 29 -25 34 -14 82 19 91 64 123 119 85z m486 -96 c40 -35 27
-65 -75 -171 -104 -109 -144 -165 -164 -231 -7 -27 -18 -50 -23 -52 -5 -1 -24
20 -43 47 -33 49 -33 51 -29 142 6 136 25 167 148 235 107 59 145 65 186 30z
m-721 -6 c51 -23 125 -98 176 -179 l39 -61 -38 16 c-99 43 -181 34 -232 -24
-32 -36 -32 -36 -65 -20 -68 33 -165 142 -165 188 0 11 30 29 98 57 110 46
131 49 187 23z m-128 -298 c49 -12 9 -63 -49 -63 -98 0 -165 93 -108 150 l21
21 57 -51 c31 -28 67 -53 79 -57z m324 31 c61 -32 219 -165 219 -184 0 -19
-56 -17 -83 2 -66 47 -178 60 -277 33 -117 -32 -148 -38 -174 -31 -33 8 -33
32 0 67 14 15 40 49 57 75 61 93 133 103 258 38z m359 -214 c-27 -38 -84 -77
-189 -130 -96 -48 -148 -92 -193 -161 -17 -27 -38 -49 -45 -49 -26 0 -113 42
-113 55 0 6 13 30 29 51 103 138 153 165 451 247 80 22 85 21 60 -13z m-25
-387 c70 -169 85 -213 90 -270 l5 -58 -14 49 c-8 27 -28 63 -45 80 -46 47
-111 268 -111 376 0 123 13 129 27 13 9 -76 22 -126 48 -190z m-105 205 l-5
-53 -70 -23 c-38 -12 -86 -21 -105 -20 l-34 3 29 33 c24 26 164 111 185 112 3
0 3 -24 0 -52z m14 -120 c4 -24 20 -85 36 -136 17 -51 30 -94 30 -97 0 -3 -31
11 -70 30 -38 19 -70 40 -70 46 0 6 -6 9 -14 6 -8 -3 -42 3 -77 14 -41 13 -76
18 -97 14 -34 -6 -34 -6 -27 27 4 18 15 47 24 63 15 27 23 31 82 37 35 3 82
13 104 21 65 24 72 22 79 -25z m-357 -45 c47 -16 51 -20 46 -43 -7 -29 -21
-50 -35 -50 -6 0 -55 -23 -109 -50 -54 -28 -99 -45 -99 -39 0 6 23 56 52 111
58 110 47 105 145 71z m206 -119 c26 -9 47 -19 47 -22 0 -3 -7 -32 -17 -65
-16 -58 -17 -59 -47 -52 -97 20 -142 24 -183 15 -24 -6 -121 -49 -215 -96 -94
-47 -173 -83 -175 -80 -10 10 20 79 50 113 28 32 250 153 347 189 49 18 138
17 193 -2z m139 -60 c114 -58 158 -100 158 -154 0 -20 -1 -20 -37 -5 -21 9
-78 27 -126 40 -49 13 -91 26 -94 28 -7 8 29 117 39 117 5 0 32 -12 60 -26z
m-182 -99 c30 -9 66 -18 80 -20 63 -13 206 -58 255 -79 58 -26 98 -74 110
-135 l7 -34 -33 22 c-124 81 -250 116 -387 107 -100 -6 -186 -25 -271 -58 -45
-18 -55 -19 -62 -7 -5 8 -22 37 -39 66 l-31 52 103 50 c116 57 168 64 268 36z
m141 -164 c96 -16 165 -41 228 -81 56 -36 61 -43 61 -75 0 -19 -3 -35 -7 -35
-3 0 -29 11 -57 25 -118 57 -265 73 -376 40 -90 -27 -101 -25 -127 20 -12 22
-23 48 -23 57 0 21 47 37 138 48 96 11 101 11 163 1z"/>
<path d="M4962 6061 c10 -17 9 -23 -7 -41 -28 -31 -9 -37 23 -7 19 18 32 23
42 17 12 -7 11 -12 -5 -29 -10 -12 -15 -24 -11 -29 4 -4 18 5 31 20 16 18 29
25 43 21 20 -5 20 -6 5 -29 -23 -35 -6 -44 22 -11 27 31 62 38 50 10 -15 -36
-17 -53 -7 -53 6 0 16 14 24 30 9 21 20 30 37 30 18 0 22 -4 16 -17 -15 -37
-17 -53 -6 -53 7 0 19 16 27 35 19 47 40 45 48 -4 9 -59 30 -66 24 -8 -4 34
-2 47 9 51 25 10 31 7 42 -24 5 -16 15 -30 20 -30 13 0 13 2 1 35 -9 22 -7 27
15 35 35 13 33 34 -2 25 -135 -33 -221 -30 -356 16 -49 16 -90 29 -93 29 -2 0
1 -9 8 -19z"/>
<path d="M6400 6054 c-87 -36 -181 -49 -275 -36 -44 6 -90 14 -102 18 -14 4
-23 2 -23 -5 0 -6 11 -13 25 -17 27 -7 31 -24 15 -55 -8 -15 -7 -19 4 -19 8 0
19 14 25 30 10 32 17 35 39 21 9 -5 13 -22 10 -44 -4 -48 16 -48 22 0 7 52 34
56 50 9 6 -20 18 -36 26 -36 10 0 11 6 4 26 -14 36 -13 44 10 44 12 0 26 -12
35 -30 9 -17 20 -28 25 -25 7 4 6 13 0 25 -25 46 0 54 42 13 32 -30 51 -24 23
8 -17 17 -17 22 -5 29 22 14 28 12 46 -15 9 -14 23 -25 31 -25 13 0 13 4 -2
26 -12 19 -14 29 -6 37 8 8 19 3 41 -18 35 -34 54 -26 21 9 -14 15 -19 26 -12
31 15 9 14 25 -1 24 -7 -1 -38 -12 -68 -25z"/>
<path d="M4410 5744 c0 -48 -11 -125 -29 -208 -94 -417 -108 -1026 -39 -1676
24 -228 29 -551 15 -912 -6 -134 -5 -208 1 -208 30 0 37 847 9 1082 -72 603
-59 1303 30 1683 28 122 43 315 24 315 -7 0 -11 -26 -11 -76z"/>
<path d="M7003 5733 c3 -49 17 -137 30 -198 59 -262 80 -498 81 -900 0 -293
-11 -515 -40 -770 -23 -203 -30 -447 -22 -768 8 -299 12 -347 30 -347 7 0 8
16 4 48 -3 26 -9 216 -12 422 -6 337 -4 395 15 575 36 355 45 514 45 835 0
426 -16 601 -84 930 -16 80 -30 171 -30 203 0 36 -4 57 -11 57 -9 0 -10 -25
-6 -87z"/>
<path d="M4150 4756 c0 -121 -16 -251 -65 -542 -74 -428 -116 -880 -85 -899 6
-4 10 9 10 32 2 171 41 525 95 848 24 143 48 301 54 350 7 50 14 106 16 126 7
50 -6 189 -16 189 -5 0 -9 -47 -9 -104z"/>
<path d="M7266 4813 c-14 -103 0 -249 54 -553 76 -430 105 -722 97 -982 -3
-104 -2 -188 2 -188 16 0 21 63 21 255 0 262 -27 524 -90 875 -47 265 -63 397
-63 518 1 117 -10 155 -21 75z"/>
<path d="M4605 4145 c3 -66 11 -181 16 -255 6 -74 14 -325 18 -558 7 -378 11
-446 25 -431 2 2 0 200 -4 439 -10 457 -34 898 -51 915 -7 7 -8 -29 -4 -110z"/>
<path d="M6816 4218 c-3 -24 -10 -131 -16 -238 -6 -107 -15 -267 -20 -355 -12
-196 -13 -665 -2 -665 5 0 12 138 15 308 7 341 23 724 37 877 9 99 -1 156 -14
73z"/>
<path d="M4925 2677 c-20 -30 -49 -146 -70 -277 -22 -141 -17 -132 -62 -114
-74 31 -117 95 -106 159 5 33 4 37 -13 33 -39 -7 -25 -101 23 -159 15 -18 52
-43 81 -56 59 -26 57 -18 32 -113 -14 -52 -47 -100 -69 -100 -10 0 -30 10 -45
21 -37 29 -54 12 -26 -24 32 -40 79 -37 118 8 26 29 40 62 68 164 4 13 26 11
77 -8 21 -8 25 -20 39 -124 19 -133 50 -206 101 -237 44 -27 71 -25 109 9 30
26 33 35 32 83 -1 65 -16 94 -91 179 l-59 65 -12 155 c-22 266 -46 359 -92
359 -11 0 -26 -10 -35 -23z m16 -256 c6 -95 9 -175 6 -177 -3 -3 -24 0 -46 7
-30 9 -40 17 -37 28 2 9 7 39 11 66 8 69 47 256 52 252 2 -2 8 -82 14 -176z"/>
<path d="M5984 2630 c-20 -8 -74 -65 -74 -78 0 -4 -4 -13 -8 -20 -6 -9 -27 -2
-85 27 -93 49 -134 57 -203 42 -60 -14 -104 -55 -104 -98 0 -31 33 -28 38 3 2
12 14 32 28 45 21 20 36 24 87 24 53 0 73 -6 136 -40 40 -22 76 -46 78 -53 8
-18 -26 -187 -50 -252 -22 -60 -55 -118 -80 -138 -34 -29 -77 14 -77 77 0 19
9 34 31 50 41 31 69 79 69 122 0 44 -15 59 -58 59 -26 0 -43 -9 -72 -38 -41
-41 -60 -91 -60 -162 -1 -32 -8 -56 -28 -85 -16 -22 -32 -39 -37 -38 -6 2 -12
59 -15 127 -4 103 -8 128 -24 145 -11 12 -27 21 -36 21 -42 0 -96 -71 -131
-175 l-13 -40 -7 71 c-8 90 -15 111 -40 125 -28 14 -62 -9 -100 -69 -46 -73
-36 -115 11 -44 l25 37 5 -96 c4 -75 9 -102 23 -117 19 -21 59 -33 75 -23 5 3
21 48 35 99 23 77 61 172 70 172 1 0 2 -46 2 -102 1 -116 17 -170 58 -189 32
-14 79 9 109 55 l22 33 36 -39 c30 -30 44 -38 73 -38 43 0 97 42 127 99 l19
36 1 -37 c0 -48 -12 -80 -45 -112 -20 -20 -25 -34 -23 -59 3 -27 8 -33 31 -35
23 -3 37 5 72 41 40 43 44 44 81 37 22 -4 66 -18 99 -29 83 -30 213 -61 257
-61 54 0 118 28 129 57 5 14 7 29 3 34 -9 15 -34 10 -34 -6 0 -8 -11 -22 -25
-31 -38 -25 -118 -13 -297 45 -126 41 -153 53 -151 68 1 10 5 61 8 113 3 52
11 132 17 178 l10 83 39 16 c80 32 93 124 22 161 -25 14 -21 13 -49 2z"/>
<path d="M6693 2493 c-24 -9 -13 -33 20 -47 54 -22 71 -58 75 -161 3 -86 2
-93 -30 -155 -35 -68 -74 -105 -100 -95 -25 10 -30 31 -35 165 -3 69 -10 131
-15 138 -13 15 -54 16 -63 2 -4 -6 -15 0 -27 15 -48 62 -145 0 -167 -106 -7
-31 -9 -68 -5 -82 4 -18 0 -35 -16 -57 -12 -16 -25 -30 -30 -30 -4 0 -8 60 -7
133 2 145 -6 177 -48 177 -36 0 -62 -42 -97 -157 -17 -56 -33 -101 -36 -99 -2
2 -5 52 -6 110 -3 107 -19 156 -49 156 -30 0 -37 -25 -37 -135 0 -123 20 -187
61 -200 32 -11 51 20 89 142 17 57 33 103 35 103 3 0 4 -44 4 -97 -1 -54 3
-109 9 -123 23 -59 71 -63 118 -10 21 23 30 27 45 19 31 -16 70 13 114 85 l40
66 7 -37 c4 -21 7 -59 7 -85 2 -90 36 -138 101 -138 51 0 96 39 135 117 24 48
30 74 33 149 5 98 -5 145 -39 189 -24 29 -68 54 -86 48z"/>
</g>
</svg>
